<mxfile host="app.diagrams.net" modified="2024-05-16T14:59:03.730Z" agent="Mozilla/5.0 (Macintosh; Intel Mac OS X 10_15_7) AppleWebKit/537.36 (KHTML, like Gecko) Chrome/124.0.0.0 Safari/537.36" version="24.4.2" etag="51tjKI78G5pGqmDD9t7W" type="github">
  <diagram name="페이지-1" id="3ctgaVSdnszYfe-s9ycf">
    <mxGraphModel>
      <root>
        <mxCell id="0" />
        <mxCell id="1" parent="0" />
      </root>
    </mxGraphModel>
  </diagram>
</mxfile>
